<svg width="22" height="40" viewBox="0 0 22 40" fill="none" xmlns="http://www.w3.org/2000/svg">
<path d="M11.4863 39.7558L21.7988 27.2558C22.0674 26.9303 22.0674 26.403 21.7988 26.0775C21.5302 25.7519 21.0952 25.7519 20.8267 26.0775L11.6877 37.155L11.6877 0.833358C11.6877 0.372734 11.3802 -4.64216e-07 11.0002 -4.80827e-07C10.6202 -4.97438e-07 10.3127 0.372734 10.3127 0.833358L10.3127 37.155L1.17381 26.0775C0.90523 25.7519 0.470174 25.7519 0.201661 26.0775C0.0674046 26.2402 0.000244892 26.4535 0.000244882 26.6667C0.000244873 26.8799 0.0674045 27.0931 0.201661 27.2559L10.5142 39.7559C10.7827 40.0814 11.2177 40.0814 11.4863 39.7558Z" fill="black"/>
</svg>
