<svg width="29" height="17" viewBox="0 0 29 17" fill="none" xmlns="http://www.w3.org/2000/svg">
<path d="M28.823 7.95359L19.7605 0.15238C19.5245 -0.0507932 19.1421 -0.0507932 18.9062 0.15238C18.6702 0.355552 18.6702 0.684666 18.9062 0.88779L26.9374 7.80122L0.604185 7.80122C0.270232 7.80122 0 8.03385 0 8.32132C0 8.6088 0.270232 8.84142 0.604185 8.84142L26.9374 8.84142L18.9062 15.7548C18.6702 15.958 18.6702 16.2871 18.9062 16.4902C19.0242 16.5918 19.1788 16.6426 19.3334 16.6426C19.4879 16.6426 19.6425 16.5918 19.7605 16.4902L28.823 8.689C29.059 8.48588 29.059 8.15676 28.823 7.95359Z" fill="white"/>
</svg>
