<svg width="31" height="30" viewBox="0 0 31 30" fill="none" xmlns="http://www.w3.org/2000/svg">
<g clip-path="url(#clip0)">
<path d="M17.0482 29.9414H12.2345C11.4305 29.9414 10.7765 29.2886 10.7765 28.4862V17.65H7.96809C7.16406 17.65 6.51001 16.997 6.51001 16.1948V11.5514C6.51001 10.749 7.16406 10.0962 7.96809 10.0962H10.7765V7.771C10.7765 5.46547 11.5018 3.50395 12.8739 2.09885C14.2522 0.687332 16.1783 -0.0585938 18.4441 -0.0585938L22.1152 -0.0526429C22.9179 -0.0512695 23.5708 0.601502 23.5708 1.40259V5.71381C23.5708 6.51627 22.917 7.16904 22.1131 7.16904L19.6414 7.16995C18.8876 7.16995 18.6957 7.32079 18.6546 7.36702C18.587 7.4437 18.5065 7.66045 18.5065 8.25897V10.096H21.9274C22.1849 10.096 22.4344 10.1594 22.6489 10.2789C23.1114 10.5368 23.399 11.0246 23.399 11.5517L23.3972 16.195C23.3972 16.997 22.7431 17.6498 21.9391 17.6498H18.5065V28.4862C18.5065 29.2886 17.8522 29.9414 17.0482 29.9414ZM12.5386 28.1827H16.7441V16.8626C16.7441 16.3268 17.181 15.891 17.7176 15.891H21.635L21.6366 11.8549H17.7174C17.1807 11.8549 16.7441 11.4191 16.7441 10.8833V8.25897C16.7441 7.57187 16.814 6.79047 17.3337 6.20316C17.9616 5.49316 18.9511 5.41122 19.641 5.41122L21.8086 5.41031V1.70563L18.4427 1.70013C14.8014 1.70013 12.5386 4.02649 12.5386 7.771V10.8833C12.5386 11.4189 12.102 11.8549 11.5654 11.8549H8.27218V15.891H11.5654C12.102 15.891 12.5386 16.3268 12.5386 16.8626V28.1827ZM22.1118 1.70609H22.112H22.1118Z" fill="white"/>
</g>
<defs>
<clipPath id="clip0">
<rect width="30" height="30" fill="white" transform="translate(0.0227051)"/>
</clipPath>
</defs>
</svg>
