<svg width="31" height="30" viewBox="0 0 31 30" fill="none" xmlns="http://www.w3.org/2000/svg">
<g clip-path="url(#clip0)">
<path d="M21.9019 0H8.14342C3.66558 0 0.0227051 3.64288 0.0227051 8.12071V21.8795C0.0227051 26.3571 3.66558 29.9999 8.14342 29.9999H21.9022C26.3798 29.9999 30.0226 26.3571 30.0226 21.8795V8.12071C30.0226 3.64288 26.3798 0 21.9019 0V0ZM28.2639 21.8795C28.2639 25.3873 25.41 28.2412 21.9019 28.2412H8.14342C4.63535 28.2412 1.78143 25.3873 1.78143 21.8795V8.12071C1.78143 4.61265 4.63535 1.75872 8.14342 1.75872H21.9022C25.41 1.75872 28.2639 4.61265 28.2639 8.12071V21.8795Z" fill="white"/>
<path d="M15.0226 6.79706C10.4995 6.79706 6.81976 10.4768 6.81976 14.9999C6.81976 19.5231 10.4995 23.2028 15.0226 23.2028C19.5458 23.2028 23.2255 19.5231 23.2255 14.9999C23.2255 10.4768 19.5458 6.79706 15.0226 6.79706ZM15.0226 21.4441C11.4695 21.4441 8.57849 18.5533 8.57849 14.9999C8.57849 11.4468 11.4695 8.55578 15.0226 8.55578C18.576 8.55578 21.4668 11.4468 21.4668 14.9999C21.4668 18.5533 18.576 21.4441 15.0226 21.4441Z" fill="white"/>
<path d="M23.4217 3.88391C22.085 3.88391 20.9979 4.97133 20.9979 6.30776C20.9979 7.64443 22.085 8.73185 23.4217 8.73185C24.7584 8.73185 25.8458 7.64443 25.8458 6.30776C25.8458 4.9711 24.7584 3.88391 23.4217 3.88391ZM23.4217 6.97289C23.055 6.97289 22.7566 6.67443 22.7566 6.30776C22.7566 5.94087 23.055 5.64264 23.4217 5.64264C23.7886 5.64264 24.0871 5.94087 24.0871 6.30776C24.0871 6.67443 23.7886 6.97289 23.4217 6.97289Z" fill="white"/>
</g>
<defs>
<clipPath id="clip0">
<rect width="30" height="30" fill="white" transform="translate(0.0227051)"/>
</clipPath>
</defs>
</svg>
