<svg width="199" height="38" viewBox="0 0 199 38" fill="none" xmlns="http://www.w3.org/2000/svg">
<path d="M100.286 15H98.7482L94.9132 10.5156C94.8038 10.388 94.7195 10.2741 94.6603 10.1738H94.6261V15H93.5392V10.1738H93.5118C93.4435 10.2878 93.3592 10.4017 93.2589 10.5156L89.424 15H87.8722L92.3634 9.91406L88.173 5.19727H89.5812L93.2589 9.44238C93.3592 9.55632 93.4435 9.66797 93.5118 9.77734H93.5392V5.19727H94.6261V9.77734H94.6603C94.7195 9.67708 94.8038 9.56543 94.9132 9.44238L98.5909 5.19727H99.9923L95.8019 9.91406L100.286 15ZM107.163 15H106.151V9.41504C106.051 9.611 105.899 9.88672 105.693 10.2422L102.46 15H101.298V8H102.323V13.5166C102.378 13.3844 102.497 13.1589 102.679 12.8398L106.001 8H107.163V15ZM114.539 15H113.425V8.9502H111.798C111.611 11.2152 111.29 12.8057 110.834 13.7217C110.383 14.6377 109.775 15.0957 109.009 15.0957C108.776 15.0957 108.576 15.0638 108.407 15V14.0361C108.567 14.1182 108.74 14.1592 108.927 14.1592C109.929 14.1592 110.574 12.1061 110.861 8H114.539V15ZM119.741 15.1641C118.707 15.1641 117.88 14.8382 117.26 14.1865C116.645 13.5303 116.337 12.6621 116.337 11.582C116.337 10.4062 116.658 9.48796 117.301 8.82715C117.943 8.16634 118.812 7.83594 119.905 7.83594C120.949 7.83594 121.762 8.15723 122.346 8.7998C122.934 9.44238 123.228 10.3333 123.228 11.4727C123.228 12.5892 122.911 13.4847 122.277 14.1592C121.649 14.8291 120.803 15.1641 119.741 15.1641ZM119.823 8.7793C119.103 8.7793 118.534 9.02539 118.114 9.51758C117.695 10.0052 117.485 10.6797 117.485 11.541C117.485 12.3704 117.697 13.0244 118.121 13.5029C118.545 13.9814 119.112 14.2207 119.823 14.2207C120.548 14.2207 121.104 13.986 121.491 13.5166C121.883 13.0472 122.079 12.3796 122.079 11.5137C122.079 10.6387 121.883 9.96419 121.491 9.49023C121.104 9.01628 120.548 8.7793 119.823 8.7793ZM130.884 15H129.872V9.41504C129.772 9.611 129.619 9.88672 129.414 10.2422L126.181 15H125.019V8H126.044V13.5166C126.099 13.3844 126.217 13.1589 126.4 12.8398L129.722 8H130.884V15ZM130.474 4.5957C130.405 5.23828 130.146 5.74642 129.694 6.12012C129.248 6.48926 128.687 6.67383 128.013 6.67383C127.32 6.67383 126.755 6.48926 126.318 6.12012C125.885 5.74642 125.648 5.23828 125.607 4.5957H126.714C126.778 5.45247 127.215 5.88086 128.026 5.88086C128.391 5.88086 128.692 5.76921 128.929 5.5459C129.166 5.31803 129.312 5.0013 129.366 4.5957H130.474ZM142.806 15H141.234L138.144 11.6367H138.116V15H136.995V8H138.116V11.2061H138.144L141.083 8H142.553L139.306 11.377L142.806 15ZM146.88 15.1641C145.845 15.1641 145.018 14.8382 144.399 14.1865C143.783 13.5303 143.476 12.6621 143.476 11.582C143.476 10.4062 143.797 9.48796 144.44 8.82715C145.082 8.16634 145.95 7.83594 147.044 7.83594C148.088 7.83594 148.901 8.15723 149.484 8.7998C150.072 9.44238 150.366 10.3333 150.366 11.4727C150.366 12.5892 150.05 13.4847 149.416 14.1592C148.787 14.8291 147.942 15.1641 146.88 15.1641ZM146.962 8.7793C146.242 8.7793 145.672 9.02539 145.253 9.51758C144.834 10.0052 144.624 10.6797 144.624 11.541C144.624 12.3704 144.836 13.0244 145.26 13.5029C145.684 13.9814 146.251 14.2207 146.962 14.2207C147.687 14.2207 148.243 13.986 148.63 13.5166C149.022 13.0472 149.218 12.3796 149.218 11.5137C149.218 10.6387 149.022 9.96419 148.63 9.49023C148.243 9.01628 147.687 8.7793 146.962 8.7793ZM159.718 15H158.61V9.23047C158.51 9.52214 158.355 9.95052 158.146 10.5156L156.396 15H155.391L153.586 10.5156C153.49 10.2741 153.335 9.8457 153.121 9.23047V15H152.157V8H153.586L155.432 12.5664C155.564 12.8991 155.733 13.3594 155.938 13.9473L156.437 12.5938L158.228 8H159.718V15ZM167.798 15H166.677V8.95703H163.109V15H161.987V8H167.798V15ZM175.174 15H174.06V8.9502H172.433C172.246 11.2152 171.925 12.8057 171.469 13.7217C171.018 14.6377 170.409 15.0957 169.644 15.0957C169.411 15.0957 169.211 15.0638 169.042 15V14.0361C169.202 14.1182 169.375 14.1592 169.562 14.1592C170.564 14.1592 171.209 12.1061 171.496 8H175.174V15ZM183.076 11.7803H178.134C178.152 12.5596 178.362 13.1611 178.763 13.585C179.164 14.0088 179.715 14.2207 180.417 14.2207C181.206 14.2207 181.93 13.9609 182.591 13.4414V14.4941C181.976 14.9408 181.162 15.1641 180.151 15.1641C179.162 15.1641 178.385 14.8473 177.819 14.2139C177.254 13.5758 176.972 12.6803 176.972 11.5273C176.972 10.4382 177.279 9.55176 177.895 8.86816C178.514 8.18001 179.282 7.83594 180.198 7.83594C181.114 7.83594 181.823 8.13216 182.324 8.72461C182.826 9.31706 183.076 10.1396 183.076 11.1924V11.7803ZM181.928 10.8301C181.923 10.1829 181.766 9.67936 181.456 9.31934C181.151 8.95931 180.725 8.7793 180.178 8.7793C179.649 8.7793 179.2 8.96842 178.831 9.34668C178.462 9.72493 178.234 10.2194 178.148 10.8301H181.928ZM190.589 15H189.017L185.927 11.6367H185.9V15H184.778V8H185.9V11.2061H185.927L188.866 8H190.336L187.089 11.377L190.589 15ZM196.509 14.6787C195.971 15.0023 195.333 15.1641 194.595 15.1641C193.597 15.1641 192.79 14.8405 192.175 14.1934C191.564 13.5417 191.259 12.6986 191.259 11.6641C191.259 10.5111 191.589 9.58594 192.25 8.88867C192.911 8.18685 193.793 7.83594 194.896 7.83594C195.511 7.83594 196.053 7.94987 196.523 8.17773V9.32617C196.003 8.96159 195.447 8.7793 194.855 8.7793C194.139 8.7793 193.551 9.03678 193.091 9.55176C192.635 10.0622 192.407 10.7344 192.407 11.5684C192.407 12.3887 192.622 13.0358 193.05 13.5098C193.483 13.9837 194.062 14.2207 194.786 14.2207C195.397 14.2207 195.971 14.0179 196.509 13.6123V14.6787ZM96.8956 34H95.6241L94.5851 31.252H90.4288L89.4513 34H88.173L91.9327 24.1973H93.1222L96.8956 34ZM94.2091 30.2197L92.671 26.043C92.6209 25.9062 92.5708 25.6875 92.5206 25.3867H92.4933C92.4477 25.6647 92.3953 25.8835 92.3361 26.043L90.8116 30.2197H94.2091ZM104.005 34H102.433L99.3429 30.6367H99.3156V34H98.1945V27H99.3156V30.2061H99.3429L102.282 27H103.752L100.505 30.377L104.005 34ZM105.153 34V27H108.202C108.89 27 109.433 27.1527 109.829 27.458C110.23 27.7633 110.431 28.1803 110.431 28.709C110.431 29.6159 109.984 30.1673 109.091 30.3633C110.162 30.5 110.697 31.04 110.697 31.9834C110.697 32.5531 110.476 33.0316 110.034 33.4189C109.597 33.8063 109.052 34 108.401 34H105.153ZM106.275 27.957V29.9258H107.956C108.859 29.9258 109.31 29.5749 109.31 28.873C109.31 28.2624 108.904 27.957 108.093 27.957H106.275ZM106.275 30.8828V33.043H108.216C109.123 33.043 109.576 32.6761 109.576 31.9424C109.576 31.236 109.068 30.8828 108.052 30.8828H106.275ZM117.588 34H116.467V32.9062H116.44C115.952 33.7448 115.234 34.1641 114.286 34.1641C113.589 34.1641 113.042 33.9795 112.646 33.6104C112.254 33.2412 112.058 32.7513 112.058 32.1406C112.058 30.8327 112.828 30.0716 114.368 29.8574L116.467 29.5635C116.467 28.374 115.986 27.7793 115.025 27.7793C114.181 27.7793 113.42 28.0664 112.741 28.6406V27.4922C113.429 27.0547 114.222 26.8359 115.12 26.8359C116.765 26.8359 117.588 27.7064 117.588 29.4473V34ZM116.467 30.459L114.778 30.6914C114.259 30.7643 113.867 30.8942 113.603 31.0811C113.338 31.2633 113.206 31.5892 113.206 32.0586C113.206 32.4004 113.327 32.6807 113.568 32.8994C113.815 33.1136 114.14 33.2207 114.546 33.2207C115.102 33.2207 115.56 33.027 115.92 32.6396C116.285 32.2477 116.467 31.7533 116.467 31.1562V30.459ZM127.261 34H126.153V28.2305C126.053 28.5221 125.898 28.9505 125.689 29.5156L123.939 34H122.934L121.129 29.5156C121.033 29.2741 120.878 28.8457 120.664 28.2305V34H119.7V27H121.129L122.975 31.5664C123.107 31.8991 123.276 32.3594 123.481 32.9473L123.98 31.5938L125.771 27H127.261V34ZM134.541 34H133.42V32.9062H133.393C132.905 33.7448 132.187 34.1641 131.239 34.1641C130.542 34.1641 129.995 33.9795 129.599 33.6104C129.207 33.2412 129.011 32.7513 129.011 32.1406C129.011 30.8327 129.781 30.0716 131.321 29.8574L133.42 29.5635C133.42 28.374 132.939 27.7793 131.978 27.7793C131.135 27.7793 130.373 28.0664 129.694 28.6406V27.4922C130.383 27.0547 131.176 26.8359 132.073 26.8359C133.719 26.8359 134.541 27.7064 134.541 29.4473V34ZM133.42 30.459L131.732 30.6914C131.212 30.7643 130.82 30.8942 130.556 31.0811C130.291 31.2633 130.159 31.5892 130.159 32.0586C130.159 32.4004 130.28 32.6807 130.522 32.8994C130.768 33.1136 131.094 33.2207 131.499 33.2207C132.055 33.2207 132.513 33.027 132.873 32.6396C133.238 32.2477 133.42 31.7533 133.42 31.1562V30.459ZM137.802 32.9883H137.775V37.2197H136.653V27H137.775V28.2305H137.802C138.353 27.3008 139.16 26.8359 140.222 26.8359C141.124 26.8359 141.828 27.1504 142.334 27.7793C142.84 28.4036 143.093 29.2422 143.093 30.2949C143.093 31.4661 142.808 32.4049 142.238 33.1113C141.669 33.8132 140.889 34.1641 139.901 34.1641C138.994 34.1641 138.294 33.7721 137.802 32.9883ZM137.775 30.165V31.1426C137.775 31.7214 137.961 32.2135 138.335 32.6191C138.713 33.0202 139.192 33.2207 139.771 33.2207C140.45 33.2207 140.981 32.9609 141.363 32.4414C141.751 31.9219 141.944 31.1995 141.944 30.2744C141.944 29.4951 141.764 28.8844 141.404 28.4424C141.044 28.0003 140.557 27.7793 139.942 27.7793C139.29 27.7793 138.766 28.0072 138.369 28.4629C137.973 28.9141 137.775 29.4814 137.775 30.165ZM150.749 34H149.737V28.415C149.637 28.611 149.484 28.8867 149.279 29.2422L146.046 34H144.884V27H145.909V32.5166C145.964 32.3844 146.082 32.1589 146.265 31.8398L149.587 27H150.749V34ZM158.829 34H157.708V30.8213H154.14V34H153.019V27H154.14V29.8711H157.708V27H158.829V34Z" fill="black"/>
<path d="M72.6751 33H68.3472L66.2082 26.9477H56.8561L54.8 33H50.4888L59.3931 9.22187H63.837L72.6751 33ZM65.1636 23.7308L61.8638 14.2461C61.7643 13.9366 61.6593 13.4391 61.5487 12.7538H61.4824C61.3829 13.3839 61.2724 13.8813 61.1508 14.2461L57.8842 23.7308H65.1636Z" fill="black"/>
<path d="M54.8118 32.7959L0.0227623 32.7959" stroke="black" stroke-width="0.530614"/>
<path fill-rule="evenodd" clip-rule="evenodd" d="M13.819 17.1429H22.8394V32.5307H13.819V17.1429ZM19.6557 19.2653H20.717V20.3266H19.6557V19.2653ZM17.0027 19.2653H15.9414V20.3266H17.0027V19.2653ZM19.6557 24.0409H20.717V25.1021H19.6557V24.0409ZM20.717 28.8164H19.6557V29.8776H20.717V28.8164ZM15.9414 24.0409H17.0027V25.1021H15.9414V24.0409ZM17.0027 28.8164H15.9414V29.8776H17.0027V28.8164Z" fill="black"/>
<path fill-rule="evenodd" clip-rule="evenodd" d="M24.9619 21.3878H31.3292V32.5307H24.9619V21.3878ZM26.5537 22.9796H27.6149V24.0409H26.5537V22.9796ZM29.7374 22.9796H28.6762V24.0409H29.7374V22.9796ZM26.5537 26.6939H27.6149V27.7552H26.5537V26.6939ZM27.6149 30.4082H26.5537V31.4695H27.6149V30.4082ZM28.6762 26.6939H29.7374V27.7552H28.6762V26.6939ZM29.7374 30.4082H28.6762V31.4695H29.7374V30.4082Z" fill="black"/>
</svg>
