<svg width="31" height="30" viewBox="0 0 31 30" fill="none" xmlns="http://www.w3.org/2000/svg">
<g clip-path="url(#clip0)">
<path d="M11.4377 27.405C6.4307 27.405 2.47333 26.5302 0.580019 25.0054L0.543169 24.9756L0.509753 24.9422C0.0599999 24.4922 -0.0874 23.9019 0.105776 23.3229L0.1234 23.2748C0.357775 22.6886 0.932039 22.294 1.55437 22.2904C2.83519 22.2682 3.9558 22.1155 4.97272 21.8191C3.35063 21.0647 2.22385 19.7585 1.55345 17.8679C1.328 17.2783 1.52255 16.6246 2.04212 16.2349C2.17029 16.1385 2.31517 16.0657 2.46852 16.017C1.56719 14.9765 0.901369 13.7925 0.528521 12.5402L0.516848 12.5013L0.508837 12.4615C0.382265 11.8282 0.665392 11.177 1.18427 10.8966C1.40193 10.7717 1.63837 10.7069 1.87572 10.7014C1.61983 10.1503 1.43375 9.58446 1.32343 9.01523C1.01718 7.43778 1.26987 5.85643 2.07416 4.31514L2.26024 3.94298C2.40924 3.64521 2.69397 3.43601 3.02219 3.38268C3.3504 3.32958 3.68686 3.43807 3.92192 3.67313L4.2609 4.01256C6.93881 6.82003 9.33749 8.15212 13.4846 9.06353C13.6698 7.47165 14.358 5.99193 15.4683 4.82738C16.7897 3.44173 18.5541 2.66422 20.4367 2.63767H20.449C21.8225 2.63767 23.5263 3.42182 24.5568 3.9748C25.4407 3.68549 26.5057 3.23757 27.6107 2.76401C28.1278 2.5214 28.7652 2.6324 29.1717 3.0389C29.5702 3.43738 29.6807 3.99929 29.4692 4.5454C29.3889 4.76902 29.2978 4.98851 29.1964 5.20321C29.3477 5.27256 29.4862 5.36663 29.6031 5.48359C29.9568 5.83721 30.1042 6.39064 29.9785 6.89373L29.965 6.94156C29.5416 8.30616 28.7281 9.41761 27.6524 10.1152C27.4727 19.6827 20.268 27.405 11.4377 27.405ZM2.26711 24.0255C4.05124 25.0349 7.45128 25.6456 11.4377 25.6456C15.2703 25.6456 18.8871 24.0001 21.6216 21.0123C24.3785 18 25.8966 13.9998 25.8966 9.74857V9.70073C25.8966 9.31575 26.1086 8.96442 26.4496 8.7836C27.1415 8.41716 27.7018 7.793 28.0662 6.99489C27.6904 7.05417 27.3084 6.90334 27.0742 6.58886C26.8021 6.22333 26.7991 5.72963 27.0667 5.3609C27.2111 5.16178 27.342 4.95464 27.4588 4.74041C26.5045 5.14118 25.5984 5.50052 24.8117 5.73925C24.5259 5.82576 24.2073 5.79189 23.9461 5.64609C22.5456 4.86583 21.2412 4.39937 20.4547 4.39708C17.5527 4.44149 15.1932 6.92691 15.1932 9.94037C15.1932 10.2519 15.055 10.5439 14.8144 10.7419C14.5736 10.9397 14.2605 11.0189 13.9547 10.9584C9.17293 10.0164 6.33937 8.6037 3.39275 5.64266C2.97046 6.65454 2.8551 7.67376 3.05034 8.68015C3.24832 9.69959 3.77498 10.7211 4.57355 11.6341C4.87705 11.9806 4.91733 12.4764 4.6738 12.8675C4.43118 13.2573 3.96999 13.4395 3.52664 13.3207C3.18012 13.2278 2.86151 13.1058 2.55939 12.949C3.17485 14.2859 4.23343 15.5223 5.56415 16.4342C5.94981 16.6986 6.11095 17.1913 5.95622 17.6326C5.80127 18.0746 5.36845 18.3591 4.90062 18.3243C4.3909 18.2865 3.93932 18.1897 3.52367 18.0265C4.26982 19.5461 5.46207 20.3822 7.29884 20.7017C7.73624 20.7779 8.07681 21.1233 8.14639 21.5612C8.2162 21.999 7.99945 22.433 7.60738 22.641C6.04183 23.471 4.33071 23.9164 2.26711 24.0255Z" fill="white"/>
</g>
<defs>
<clipPath id="clip0">
<rect width="30" height="30" fill="white" transform="translate(0.0227051)"/>
</clipPath>
</defs>
</svg>
