<svg width="32" height="30" viewBox="0 0 32 30" fill="none" xmlns="http://www.w3.org/2000/svg">
<g clip-path="url(#clip0)">
<path d="M20.2942 13.6519L13.4456 10.0255C13.0518 9.81694 12.5864 9.82473 12.2004 10.0461C11.8142 10.2676 11.5838 10.659 11.5838 11.0934V18.284C11.5838 18.7163 11.8127 19.107 12.1964 19.3288C12.3967 19.4446 12.6188 19.5028 12.8413 19.5028C13.0452 19.5028 13.2495 19.454 13.4376 19.3561L20.2864 15.7921C20.693 15.5804 20.9468 15.1714 20.9487 14.7244C20.9503 14.2774 20.6996 13.8666 20.2942 13.6519ZM13.4004 17.3794V12.0053L18.519 14.7157L13.4004 17.3794Z" fill="white"/>
<path d="M30.7946 8.99574L30.7932 8.98201C30.7669 8.74054 30.5056 6.59271 29.4266 5.50026C28.1795 4.21532 26.7656 4.05922 26.0857 3.98438C26.0294 3.9782 25.9778 3.97247 25.9317 3.96652L25.8775 3.96103C21.7793 3.67264 15.59 3.63327 15.5281 3.63304L15.5226 3.63281L15.5172 3.63304C15.4552 3.63327 9.266 3.67264 5.13085 3.96103L5.07622 3.96652C5.03223 3.97224 4.98375 3.97751 4.931 3.98346C4.25884 4.05853 2.86012 4.21486 1.60945 5.54626C0.581815 6.62704 0.284758 8.72887 0.254249 8.96507L0.250701 8.99574C0.241477 9.09622 0.0227051 11.4883 0.0227051 13.8897V16.1346C0.0227051 18.536 0.241477 20.928 0.250701 21.0287L0.252357 21.0439C0.278609 21.2814 0.539717 23.3899 1.61371 24.4828C2.78633 25.7247 4.26901 25.8891 5.06652 25.9774C5.19258 25.9914 5.30114 26.0033 5.37517 26.0159L5.44683 26.0255C7.81312 26.2434 15.2322 26.3507 15.5468 26.3551L15.5562 26.3553L15.5657 26.3551C15.6277 26.3548 21.8167 26.3155 25.9149 26.0271L25.9691 26.0216C26.0209 26.0149 26.079 26.009 26.1429 26.0026C26.8113 25.9339 28.2024 25.7913 29.4358 24.478C30.4635 23.397 30.7608 21.2952 30.791 21.0592L30.7946 21.0285C30.8038 20.9278 31.0228 18.536 31.0228 16.1346V13.8897C31.0226 11.4883 30.8038 9.09645 30.7946 8.99574ZM29.2059 16.1346C29.2059 18.3572 29.0054 20.6463 28.9865 20.8564C28.9094 21.4352 28.596 22.765 28.0953 23.2917C27.3233 24.1136 26.5303 24.1951 25.9513 24.2544C25.8813 24.2615 25.8165 24.2683 25.7579 24.2754C21.794 24.5528 15.8384 24.5954 15.564 24.597C15.2563 24.5927 7.9458 24.4844 5.65165 24.2782C5.5341 24.2596 5.4071 24.2455 5.27323 24.2308C4.59421 24.1555 3.66473 24.0525 2.94999 23.2917L2.9332 23.2743C2.44126 22.7783 2.13687 21.5348 2.05953 20.8633C2.0451 20.7044 1.83934 18.3884 1.83934 16.1346V13.8897C1.83934 11.6695 2.03943 9.38301 2.05882 9.16855C2.15082 8.48671 2.47011 7.23747 2.94999 6.73256C3.74561 5.8857 4.58452 5.79185 5.13937 5.72983C5.19235 5.72388 5.24178 5.71838 5.28742 5.71266C9.30905 5.43388 15.3074 5.39246 15.5226 5.39085C15.7379 5.39223 21.7341 5.43388 25.72 5.71266C25.769 5.71861 25.8224 5.72456 25.8799 5.73097C26.4506 5.79391 27.3132 5.88913 28.1048 6.70624L28.1121 6.71379C28.604 7.20978 28.9084 8.47504 28.9858 9.16008C28.9995 9.31 29.2059 11.6311 29.2059 13.8897V16.1346Z" fill="white"/>
</g>
<defs>
<clipPath id="clip0">
<rect width="31" height="30" fill="white" transform="translate(0.0227051)"/>
</clipPath>
</defs>
</svg>
