<svg xmlns="http://www.w3.org/2000/svg" xmlns:xlink="http://www.w3.org/1999/xlink"><defs><symbol viewBox="0 0 22 40" id="arrow"><path d="M11.486 39.756l10.313-12.5a.962.962 0 000-1.178c-.269-.326-.704-.326-.972 0l-9.14 11.077V.833C11.688.373 11.38 0 11 0c-.38 0-.687.373-.687.833v36.322l-9.14-11.078c-.268-.325-.703-.325-.971 0a.928.928 0 00-.202.59c0 .213.067.426.202.589l10.312 12.5c.269.325.704.325.972 0z" /></symbol><symbol viewBox="0 0 29 17" id="arrow-right"><path d="M28.823 7.954L19.76.152a.675.675 0 00-.854 0 .47.47 0 000 .736L26.937 7.8H.604c-.334 0-.604.233-.604.52 0 .288.27.52.604.52h26.333l-8.03 6.914a.47.47 0 000 .735.655.655 0 00.426.153c.155 0 .31-.051.428-.153l9.062-7.801a.47.47 0 000-.735z" /></symbol><symbol viewBox="0 0 31 30" id="facebook"><g clip-path="url(#facebook_clip0)"><path d="M17.048 29.941h-4.813a1.458 1.458 0 01-1.458-1.455V17.65H7.968a1.458 1.458 0 01-1.458-1.455V11.55c0-.802.654-1.455 1.458-1.455h2.809V7.771c0-2.306.725-4.267 2.097-5.672C14.252.687 16.178-.06 18.444-.06l3.671.006a1.459 1.459 0 011.456 1.456v4.31c0 .803-.654 1.456-1.458 1.456l-2.472.001c-.753 0-.945.15-.986.197-.068.077-.149.293-.149.892v1.837h3.421a1.46 1.46 0 011.472 1.456l-.002 4.643c0 .802-.654 1.455-1.458 1.455h-3.433v10.836c0 .803-.654 1.455-1.458 1.455zm-4.51-1.758h4.206v-11.32c0-.536.437-.972.974-.972h3.917l.002-4.036h-3.92a.974.974 0 01-.973-.972V8.26c0-.687.07-1.469.59-2.056.628-.71 1.617-.792 2.307-.792h2.168V1.705L18.443 1.7c-3.642 0-5.904 2.326-5.904 6.071v3.112a.974.974 0 01-.974.972H8.272v4.036h3.293c.537 0 .974.436.974.972v11.32zm9.574-26.477z" /></g><defs></defs></symbol><clipPath id="facebook_clip0"><path transform="translate(.023)" d="M0 0h30v30H0z" /></clipPath><symbol viewBox="0 0 31 30" id="instagram"><g clip-path="url(#instagram_clip0)"><path d="M21.902 0H8.143C3.666 0 .023 3.643.023 8.12v13.76c0 4.477 3.643 8.12 8.12 8.12h13.76c4.477 0 8.12-3.643 8.12-8.12V8.12c0-4.477-3.643-8.12-8.121-8.12zm6.362 21.88a6.369 6.369 0 01-6.362 6.361H8.143a6.369 6.369 0 01-6.362-6.361V8.12A6.37 6.37 0 018.143 1.76h13.76a6.37 6.37 0 016.36 6.362v13.758z" /><path d="M15.023 6.797c-4.524 0-8.203 3.68-8.203 8.203s3.68 8.203 8.203 8.203 8.203-3.68 8.203-8.203-3.68-8.203-8.203-8.203zm0 14.647A6.452 6.452 0 018.578 15a6.452 6.452 0 016.445-6.444A6.452 6.452 0 0121.467 15a6.451 6.451 0 01-6.444 6.444zM23.422 3.884a2.426 2.426 0 00-2.424 2.424 2.427 2.427 0 002.424 2.424 2.427 2.427 0 002.424-2.424 2.427 2.427 0 00-2.424-2.424zm0 3.089a.666.666 0 11.001-1.332.666.666 0 01-.001 1.332z" /></g><defs></defs></symbol><clipPath id="instagram_clip0"><path transform="translate(.023)" d="M0 0h30v30H0z" /></clipPath><symbol viewBox="0 0 199 38" id="logo"><path d="M100.286 15h-1.538l-3.835-4.484a2.482 2.482 0 01-.253-.342h-.034V15H93.54v-4.826h-.027a2.34 2.34 0 01-.253.342L89.424 15h-1.552l4.491-5.086-4.19-4.717h1.408l3.678 4.245c.1.114.184.226.253.335h.027v-4.58h1.087v4.58h.034c.06-.1.144-.212.253-.335l3.678-4.245h1.401l-4.19 4.717L100.286 15zm6.877 0h-1.012V9.415c-.1.196-.252.472-.458.827L102.46 15h-1.162V8h1.025v5.517a7.31 7.31 0 01.356-.677L106.001 8h1.162v7zm7.376 0h-1.114V8.95h-1.627c-.187 2.265-.508 3.856-.964 4.772-.451.916-1.059 1.374-1.825 1.374-.233 0-.433-.032-.602-.096v-.964c.16.082.333.123.52.123 1.002 0 1.647-2.053 1.934-6.159h3.678v7zm5.202.164c-1.034 0-1.861-.326-2.481-.977-.615-.657-.923-1.525-.923-2.605 0-1.176.321-2.094.964-2.755.642-.66 1.511-.991 2.604-.991 1.044 0 1.857.321 2.441.964.588.642.882 1.533.882 2.673 0 1.116-.317 2.012-.951 2.686-.628.67-1.474 1.005-2.536 1.005zm.082-6.385c-.72 0-1.289.246-1.709.739-.419.487-.629 1.162-.629 2.023 0 .83.212 1.483.636 1.962.424.478.991.718 1.702.718.725 0 1.281-.235 1.668-.704.392-.47.588-1.137.588-2.003 0-.875-.196-1.55-.588-2.024-.387-.474-.943-.71-1.668-.71zM130.884 15h-1.012V9.415c-.1.196-.253.472-.458.827L126.181 15h-1.162V8h1.025v5.517c.055-.133.173-.358.356-.677L129.722 8h1.162v7zm-.41-10.404c-.069.642-.328 1.15-.78 1.524-.446.37-1.007.554-1.681.554-.693 0-1.258-.185-1.695-.554-.433-.374-.67-.882-.711-1.524h1.107c.064.856.501 1.285 1.312 1.285.365 0 .666-.112.903-.335.237-.228.383-.545.437-.95h1.108zM142.806 15h-1.572l-3.09-3.363h-.028V15h-1.121V8h1.121v3.206h.028L141.083 8h1.47l-3.247 3.377 3.5 3.623zm4.074.164c-1.035 0-1.862-.326-2.481-.977-.616-.657-.923-1.525-.923-2.605 0-1.176.321-2.094.964-2.755.642-.66 1.51-.991 2.604-.991 1.044 0 1.857.321 2.44.964.588.642.882 1.533.882 2.673 0 1.116-.316 2.012-.95 2.686-.629.67-1.474 1.005-2.536 1.005zm.082-6.385c-.72 0-1.29.246-1.709.739-.419.487-.629 1.162-.629 2.023 0 .83.212 1.483.636 1.962.424.478.991.718 1.702.718.725 0 1.281-.235 1.668-.704.392-.47.588-1.137.588-2.003 0-.875-.196-1.55-.588-2.024-.387-.474-.943-.71-1.668-.71zM159.718 15h-1.108V9.23c-.1.292-.255.72-.464 1.286L156.396 15h-1.005l-1.805-4.484c-.096-.242-.251-.67-.465-1.286V15h-.964V8h1.429l1.846 4.566c.132.333.301.793.506 1.381l.499-1.353L158.228 8h1.49v7zm8.08 0h-1.121V8.957h-3.568V15h-1.122V8h5.811v7zm7.376 0h-1.114V8.95h-1.627c-.187 2.265-.508 3.856-.964 4.772-.451.916-1.06 1.374-1.825 1.374-.233 0-.433-.032-.602-.096v-.964c.16.082.333.123.52.123 1.002 0 1.647-2.053 1.934-6.159h3.678v7zm7.902-3.22h-4.942c.018.78.228 1.381.629 1.805.401.424.952.636 1.654.636.789 0 1.513-.26 2.174-.78v1.053c-.615.447-1.429.67-2.44.67-.989 0-1.766-.317-2.332-.95-.565-.638-.847-1.534-.847-2.687 0-1.089.307-1.975.923-2.659.619-.688 1.387-1.032 2.303-1.032.916 0 1.625.296 2.126.889.502.592.752 1.415.752 2.467v.588zm-1.148-.95c-.005-.647-.162-1.15-.472-1.51-.305-.36-.731-.54-1.278-.54-.529 0-.978.188-1.347.567-.369.378-.597.872-.683 1.483h3.78zm8.661 4.17h-1.572l-3.09-3.363h-.027V15h-1.122V8h1.122v3.206h.027L188.866 8h1.47l-3.247 3.377 3.5 3.623zm5.92-.321c-.538.323-1.176.485-1.914.485-.998 0-1.805-.323-2.42-.97-.611-.652-.916-1.495-.916-2.53 0-1.153.33-2.078.991-2.775.661-.702 1.543-1.053 2.646-1.053.615 0 1.157.114 1.627.342v1.148c-.52-.364-1.076-.547-1.668-.547-.716 0-1.304.258-1.764.773-.456.51-.684 1.182-.684 2.016 0 .82.215 1.468.643 1.942.433.474 1.012.71 1.736.71.611 0 1.185-.202 1.723-.608v1.067zM96.896 34h-1.272l-1.039-2.748H90.43L89.45 34h-1.278l3.76-9.803h1.19L96.895 34zm-2.687-3.78l-1.538-4.177c-.05-.137-.1-.355-.15-.656h-.028a3.669 3.669 0 01-.157.656l-1.524 4.177h3.397zm9.796 3.78h-1.572l-3.09-3.363h-.027V34h-1.121v-7h1.12v3.206h.028L102.282 27h1.47l-3.247 3.377 3.5 3.623zm1.148 0v-7h3.049c.688 0 1.231.153 1.627.458.401.305.602.722.602 1.251 0 .907-.447 1.458-1.34 1.654 1.071.137 1.606.677 1.606 1.62 0 .57-.221 1.049-.663 1.436-.437.387-.982.581-1.633.581h-3.248zm1.122-6.043v1.969h1.681c.903 0 1.354-.351 1.354-1.053 0-.61-.406-.916-1.217-.916h-1.818zm0 2.926v2.16h1.941c.907 0 1.36-.367 1.36-1.1 0-.707-.508-1.06-1.524-1.06h-1.777zM117.588 34h-1.121v-1.094h-.027c-.488.839-1.206 1.258-2.154 1.258-.697 0-1.244-.184-1.64-.554-.392-.369-.588-.859-.588-1.47 0-1.307.77-2.068 2.31-2.283l2.099-.293c0-1.19-.481-1.785-1.442-1.785-.844 0-1.605.287-2.284.862v-1.149c.688-.437 1.481-.656 2.379-.656 1.645 0 2.468.87 2.468 2.611V34zm-1.121-3.541l-1.689.232c-.519.073-.911.203-1.175.39-.265.182-.397.508-.397.978 0 .341.121.622.362.84.247.215.572.322.978.322.556 0 1.014-.194 1.374-.581.365-.392.547-.887.547-1.484v-.697zM127.261 34h-1.108v-5.77c-.1.292-.255.72-.464 1.286L123.939 34h-1.005l-1.805-4.484c-.096-.242-.251-.67-.465-1.285V34h-.964v-7h1.429l1.846 4.566c.132.333.301.793.506 1.381l.499-1.353L125.771 27h1.49v7zm7.28 0h-1.121v-1.094h-.027c-.488.839-1.206 1.258-2.154 1.258-.697 0-1.244-.184-1.64-.554-.392-.369-.588-.859-.588-1.47 0-1.307.77-2.068 2.31-2.283l2.099-.293c0-1.19-.481-1.785-1.442-1.785-.843 0-1.605.287-2.284.862v-1.149c.689-.437 1.482-.656 2.379-.656 1.646 0 2.468.87 2.468 2.611V34zm-1.121-3.541l-1.688.232c-.52.073-.912.203-1.176.39-.265.182-.397.508-.397.978 0 .341.121.622.363.84.246.215.572.322.977.322.556 0 1.014-.194 1.374-.581.365-.392.547-.887.547-1.484v-.697zm4.382 2.53h-.027v4.23h-1.122V27h1.122v1.23h.027c.551-.93 1.358-1.394 2.42-1.394.902 0 1.606.314 2.112.943.506.625.759 1.463.759 2.516 0 1.171-.285 2.11-.855 2.816-.569.702-1.349 1.053-2.337 1.053-.907 0-1.607-.392-2.099-1.176zm-.027-2.824v.978c0 .578.186 1.07.56 1.476.378.401.857.602 1.436.602.679 0 1.21-.26 1.592-.78.388-.52.581-1.242.581-2.167 0-.779-.18-1.39-.54-1.832-.36-.442-.847-.663-1.462-.663-.652 0-1.176.228-1.573.684-.396.451-.594 1.018-.594 1.702zM150.749 34h-1.012v-5.585c-.1.196-.253.472-.458.827L146.046 34h-1.162v-7h1.025v5.517c.055-.133.173-.358.356-.677l3.322-4.84h1.162v7zm8.08 0h-1.121v-3.179h-3.568V34h-1.121v-7h1.121v2.871h3.568V27h1.121v7zM72.675 33h-4.328l-2.139-6.052h-9.352L54.8 33h-4.311l8.904-23.778h4.444L72.675 33zm-7.511-9.27l-3.3-9.484c-.1-.31-.205-.807-.315-1.492h-.067c-.1.63-.21 1.127-.331 1.492l-3.267 9.485h7.28z" /><path d="M54.812 32.796H.022" stroke="#000" stroke-width=".531" /><path fill-rule="evenodd" clip-rule="evenodd" d="M13.819 17.143h9.02V32.53h-9.02V17.143zm5.837 2.122h1.061v1.062h-1.061v-1.062zm-2.653 0H15.94v1.062h1.062v-1.062zm2.653 4.776h1.061v1.061h-1.061v-1.061zm1.061 4.775h-1.061v1.062h1.061v-1.062zm-4.776-4.775h1.062v1.061H15.94v-1.061zm1.062 4.775H15.94v1.062h1.062v-1.062zM24.962 21.388h6.367V32.53h-6.367V21.388zm1.592 1.592h1.06v1.06h-1.06v-1.06zm3.183 0h-1.06v1.06h1.06v-1.06zm-3.183 3.714h1.06v1.061h-1.06v-1.061zm1.06 3.714h-1.06v1.061h1.06v-1.06zm1.062-3.714h1.061v1.061h-1.06v-1.061zm1.061 3.714h-1.06v1.061h1.06v-1.06z" /></symbol><symbol viewBox="0 0 199 38" id="logo_white"><path d="M100.286 15h-1.538l-3.835-4.484a2.482 2.482 0 01-.253-.342h-.034V15H93.54v-4.826h-.027a2.34 2.34 0 01-.253.342L89.424 15h-1.552l4.491-5.086-4.19-4.717h1.408l3.678 4.245c.1.114.184.226.253.335h.027v-4.58h1.087v4.58h.034c.06-.1.144-.212.253-.335l3.678-4.245h1.401l-4.19 4.717L100.286 15zm6.877 0h-1.012V9.415c-.1.196-.252.472-.458.827L102.46 15h-1.162V8h1.025v5.517a7.31 7.31 0 01.356-.677L106.001 8h1.162v7zm7.376 0h-1.114V8.95h-1.627c-.187 2.265-.508 3.856-.964 4.772-.451.916-1.059 1.374-1.825 1.374-.233 0-.433-.032-.602-.096v-.964c.16.082.333.123.52.123 1.002 0 1.647-2.053 1.934-6.159h3.678v7zm5.202.164c-1.034 0-1.861-.326-2.481-.977-.615-.657-.923-1.525-.923-2.605 0-1.176.321-2.094.964-2.755.642-.66 1.511-.991 2.604-.991 1.044 0 1.857.321 2.441.964.588.642.882 1.533.882 2.673 0 1.116-.317 2.012-.951 2.686-.628.67-1.474 1.005-2.536 1.005zm.082-6.385c-.72 0-1.289.246-1.709.739-.419.487-.629 1.162-.629 2.023 0 .83.212 1.483.636 1.962.424.478.991.718 1.702.718.725 0 1.281-.235 1.668-.704.392-.47.588-1.137.588-2.003 0-.875-.196-1.55-.588-2.024-.387-.474-.943-.71-1.668-.71zM130.884 15h-1.012V9.415c-.1.196-.253.472-.458.827L126.181 15h-1.162V8h1.025v5.517c.055-.133.173-.358.356-.677L129.722 8h1.162v7zm-.41-10.404c-.069.642-.328 1.15-.78 1.524-.446.37-1.007.554-1.681.554-.693 0-1.258-.185-1.695-.554-.433-.374-.67-.882-.711-1.524h1.107c.064.856.501 1.285 1.312 1.285.365 0 .666-.112.903-.335.237-.228.383-.545.437-.95h1.108zM142.806 15h-1.572l-3.09-3.363h-.028V15h-1.121V8h1.121v3.206h.028L141.083 8h1.47l-3.247 3.377 3.5 3.623zm4.074.164c-1.035 0-1.862-.326-2.481-.977-.616-.657-.923-1.525-.923-2.605 0-1.176.321-2.094.964-2.755.642-.66 1.51-.991 2.604-.991 1.044 0 1.857.321 2.44.964.588.642.882 1.533.882 2.673 0 1.116-.316 2.012-.95 2.686-.629.67-1.474 1.005-2.536 1.005zm.082-6.385c-.72 0-1.29.246-1.709.739-.419.487-.629 1.162-.629 2.023 0 .83.212 1.483.636 1.962.424.478.991.718 1.702.718.725 0 1.281-.235 1.668-.704.392-.47.588-1.137.588-2.003 0-.875-.196-1.55-.588-2.024-.387-.474-.943-.71-1.668-.71zM159.718 15h-1.108V9.23c-.1.292-.255.72-.464 1.286L156.396 15h-1.005l-1.805-4.484c-.096-.242-.251-.67-.465-1.286V15h-.964V8h1.429l1.846 4.566c.132.333.301.793.506 1.381l.499-1.353L158.228 8h1.49v7zm8.08 0h-1.121V8.957h-3.568V15h-1.122V8h5.811v7zm7.376 0h-1.114V8.95h-1.627c-.187 2.265-.508 3.856-.964 4.772-.451.916-1.06 1.374-1.825 1.374-.233 0-.433-.032-.602-.096v-.964c.16.082.333.123.52.123 1.002 0 1.647-2.053 1.934-6.159h3.678v7zm7.902-3.22h-4.942c.018.78.228 1.381.629 1.805.401.424.952.636 1.654.636.789 0 1.513-.26 2.174-.78v1.053c-.615.447-1.429.67-2.44.67-.989 0-1.766-.317-2.332-.95-.565-.638-.847-1.534-.847-2.687 0-1.089.307-1.975.923-2.659.619-.688 1.387-1.032 2.303-1.032.916 0 1.625.296 2.126.889.502.592.752 1.415.752 2.467v.588zm-1.148-.95c-.005-.647-.162-1.15-.472-1.51-.305-.36-.731-.54-1.278-.54-.529 0-.978.188-1.347.567-.369.378-.597.872-.683 1.483h3.78zm8.661 4.17h-1.572l-3.09-3.363h-.027V15h-1.122V8h1.122v3.206h.027L188.866 8h1.47l-3.247 3.377 3.5 3.623zm5.92-.321c-.538.323-1.176.485-1.914.485-.998 0-1.805-.323-2.42-.97-.611-.652-.916-1.495-.916-2.53 0-1.153.33-2.078.991-2.775.661-.702 1.543-1.053 2.646-1.053.615 0 1.157.114 1.627.342v1.148c-.52-.364-1.076-.547-1.668-.547-.716 0-1.304.258-1.764.773-.456.51-.684 1.182-.684 2.016 0 .82.215 1.468.643 1.942.433.474 1.012.71 1.736.71.611 0 1.185-.202 1.723-.608v1.067zM96.896 34h-1.272l-1.039-2.748H90.43L89.45 34h-1.278l3.76-9.803h1.19L96.895 34zm-2.687-3.78l-1.538-4.177c-.05-.137-.1-.355-.15-.656h-.028a3.669 3.669 0 01-.157.656l-1.524 4.177h3.397zm9.796 3.78h-1.572l-3.09-3.363h-.027V34h-1.121v-7h1.12v3.206h.028L102.282 27h1.47l-3.247 3.377 3.5 3.623zm1.148 0v-7h3.049c.688 0 1.231.153 1.627.458.401.305.602.722.602 1.251 0 .907-.447 1.458-1.34 1.654 1.071.137 1.606.677 1.606 1.62 0 .57-.221 1.049-.663 1.436-.437.387-.982.581-1.633.581h-3.248zm1.122-6.043v1.969h1.681c.903 0 1.354-.351 1.354-1.053 0-.61-.406-.916-1.217-.916h-1.818zm0 2.926v2.16h1.941c.907 0 1.36-.367 1.36-1.1 0-.707-.508-1.06-1.524-1.06h-1.777zM117.588 34h-1.121v-1.094h-.027c-.488.839-1.206 1.258-2.154 1.258-.697 0-1.244-.184-1.64-.554-.392-.369-.588-.859-.588-1.47 0-1.307.77-2.068 2.31-2.283l2.099-.293c0-1.19-.481-1.785-1.442-1.785-.844 0-1.605.287-2.284.862v-1.149c.688-.437 1.481-.656 2.379-.656 1.645 0 2.468.87 2.468 2.611V34zm-1.121-3.541l-1.689.232c-.519.073-.911.203-1.175.39-.265.182-.397.508-.397.978 0 .341.121.622.362.84.247.215.572.322.978.322.556 0 1.014-.194 1.374-.581.365-.392.547-.887.547-1.484v-.697zM127.261 34h-1.108v-5.77c-.1.292-.255.72-.464 1.286L123.939 34h-1.005l-1.805-4.484c-.096-.242-.251-.67-.465-1.285V34h-.964v-7h1.429l1.846 4.566c.132.333.301.793.506 1.381l.499-1.353L125.771 27h1.49v7zm7.28 0h-1.121v-1.094h-.027c-.488.839-1.206 1.258-2.154 1.258-.697 0-1.244-.184-1.64-.554-.392-.369-.588-.859-.588-1.47 0-1.307.77-2.068 2.31-2.283l2.099-.293c0-1.19-.481-1.785-1.442-1.785-.843 0-1.605.287-2.284.862v-1.149c.689-.437 1.482-.656 2.379-.656 1.646 0 2.468.87 2.468 2.611V34zm-1.121-3.541l-1.688.232c-.52.073-.912.203-1.176.39-.265.182-.397.508-.397.978 0 .341.121.622.363.84.246.215.572.322.977.322.556 0 1.014-.194 1.374-.581.365-.392.547-.887.547-1.484v-.697zm4.382 2.53h-.027v4.23h-1.122V27h1.122v1.23h.027c.551-.93 1.358-1.394 2.42-1.394.902 0 1.606.314 2.112.943.506.625.759 1.463.759 2.516 0 1.171-.285 2.11-.855 2.816-.569.702-1.349 1.053-2.337 1.053-.907 0-1.607-.392-2.099-1.176zm-.027-2.824v.978c0 .578.186 1.07.56 1.476.378.401.857.602 1.436.602.679 0 1.21-.26 1.592-.78.388-.52.581-1.242.581-2.167 0-.779-.18-1.39-.54-1.832-.36-.442-.847-.663-1.462-.663-.652 0-1.176.228-1.573.684-.396.451-.594 1.018-.594 1.702zM150.749 34h-1.012v-5.585c-.1.196-.253.472-.458.827L146.046 34h-1.162v-7h1.025v5.517c.055-.133.173-.358.356-.677l3.322-4.84h1.162v7zm8.08 0h-1.121v-3.179h-3.568V34h-1.121v-7h1.121v2.871h3.568V27h1.121v7zM72.675 33h-4.328l-2.139-6.052h-9.352L54.8 33h-4.311l8.904-23.778h4.444L72.675 33zm-7.511-9.27l-3.3-9.484c-.1-.31-.205-.807-.315-1.492h-.067c-.1.63-.21 1.127-.331 1.492l-3.267 9.485h7.28z" /><path d="M54.812 32.796H.022" stroke="#fff" stroke-width=".531" /><path fill-rule="evenodd" clip-rule="evenodd" d="M13.819 17.143h9.02V32.53h-9.02V17.143zm5.837 2.122h1.061v1.062h-1.061v-1.062zm-2.653 0H15.94v1.062h1.062v-1.062zm2.653 4.776h1.061v1.061h-1.061v-1.061zm1.061 4.775h-1.061v1.062h1.061v-1.062zm-4.776-4.775h1.062v1.061H15.94v-1.061zm1.062 4.775H15.94v1.062h1.062v-1.062zM24.962 21.388h6.367V32.53h-6.367V21.388zm1.592 1.592h1.06v1.06h-1.06v-1.06zm3.183 0h-1.06v1.06h1.06v-1.06zm-3.183 3.714h1.06v1.061h-1.06v-1.061zm1.06 3.714h-1.06v1.061h1.06v-1.06zm1.062-3.714h1.061v1.061h-1.06v-1.061zm1.061 3.714h-1.06v1.061h1.06v-1.06z" /></symbol><symbol viewBox="0 0 30 24" id="ticks"><path d="M29.235.463a1.42 1.42 0 00-2.098 0L9.364 19.392l-6.832-7.276a1.42 1.42 0 00-2.098 0 1.653 1.653 0 000 2.234l7.881 8.394a1.42 1.42 0 002.098 0L29.235 2.697c.58-.617.579-1.617 0-2.234z" /></symbol><symbol viewBox="0 0 31 30" id="twitter"><g clip-path="url(#twitter_clip0)"><path d="M11.438 27.405c-5.007 0-8.965-.875-10.858-2.4l-.037-.03-.033-.033c-.45-.45-.597-1.04-.404-1.62l.017-.047c.235-.586.809-.981 1.431-.985 1.281-.022 2.402-.174 3.419-.47-1.622-.755-2.75-2.061-3.42-3.952a1.4 1.4 0 01.49-1.633c.127-.096.272-.17.426-.218C1.567 14.977.9 13.793.529 12.54l-.012-.039-.008-.04c-.127-.633.156-1.284.675-1.564.218-.125.454-.19.692-.196a7.314 7.314 0 01-.553-1.686c-.306-1.577-.053-3.159.751-4.7l.186-.372a1.04 1.04 0 011.662-.27l.339.34c2.678 2.807 5.076 4.14 9.224 5.05a7.348 7.348 0 011.983-4.236c1.322-1.385 3.086-2.163 4.969-2.19h.012c1.373 0 3.077.785 4.108 1.338.884-.29 1.949-.737 3.054-1.211a1.395 1.395 0 011.56.275c.4.398.51.96.298 1.506-.08.224-.171.444-.273.658.152.07.29.164.407.28.354.354.501.908.375 1.41l-.013.049c-.423 1.364-1.237 2.476-2.313 3.173-.18 9.568-7.384 17.29-16.214 17.29zm-9.17-3.38c1.783 1.01 5.183 1.62 9.17 1.62 3.832 0 7.45-1.645 10.184-4.633C24.378 18 25.897 14 25.897 9.75V9.7c0-.385.212-.737.553-.917.692-.367 1.252-.991 1.616-1.79a1.033 1.033 0 01-.992-.405 1.033 1.033 0 01-.007-1.228c.144-.2.275-.406.392-.62-.954.4-1.86.76-2.647.998a1.125 1.125 0 01-.866-.093c-1.4-.78-2.705-1.247-3.491-1.249-2.902.044-5.262 2.53-5.262 5.543a1.035 1.035 0 01-1.238 1.018c-4.782-.942-7.616-2.354-10.562-5.315-.423 1.012-.538 2.03-.343 3.037.198 1.02.725 2.041 1.524 2.954.303.347.343.842.1 1.233a1.03 1.03 0 01-1.147.454 4.75 4.75 0 01-.968-.372c.616 1.337 1.674 2.573 3.005 3.485a1.039 1.039 0 01-.663 1.89 4.665 4.665 0 01-1.377-.298c.746 1.52 1.938 2.356 3.775 2.676a1.038 1.038 0 01.308 1.939c-1.565.83-3.276 1.275-5.34 1.385z" /></g><defs></defs></symbol><clipPath id="twitter_clip0"><path transform="translate(.023)" d="M0 0h30v30H0z" /></clipPath><symbol viewBox="0 0 32 30" id="youtube"><g clip-path="url(#youtube_clip0)"><path d="M20.294 13.652l-6.848-3.627c-.394-.208-.86-.2-1.246.021a1.2 1.2 0 00-.616 1.047v7.191c0 .432.229.823.612 1.045a1.287 1.287 0 001.242.027l6.848-3.564c.407-.212.66-.62.663-1.068a1.211 1.211 0 00-.655-1.072zM13.4 17.379v-5.374l5.119 2.71L13.4 17.38z" /><path d="M30.795 8.996l-.002-.014c-.026-.241-.287-2.39-1.366-3.482-1.247-1.285-2.661-1.44-3.341-1.516a8.443 8.443 0 01-.154-.017l-.054-.006c-4.099-.288-10.288-.328-10.35-.328h-.011c-.062 0-6.251.04-10.386.328l-.055.006-.145.016c-.672.076-2.07.232-3.322 1.563C.582 6.627.285 8.73.254 8.966l-.003.03c-.01.1-.228 2.492-.228 4.894v2.245c0 2.401.218 4.793.228 4.894l.001.015c.027.237.288 2.346 1.362 3.439 1.172 1.242 2.655 1.406 3.453 1.494.126.014.234.026.308.039l.072.01c2.366.217 9.785.325 10.1.33h.019c.062-.001 6.25-.04 10.349-.329l.054-.005a6.3 6.3 0 01.174-.02c.668-.068 2.06-.21 3.293-1.524 1.027-1.081 1.325-3.183 1.355-3.419l.004-.03c.009-.101.228-2.493.228-4.894V13.89c0-2.402-.22-4.794-.228-4.894zm-1.59 7.139c0 2.222-.2 4.511-.218 4.721-.078.58-.391 1.909-.892 2.436-.772.822-1.565.903-2.144.962l-.193.021c-3.964.278-9.92.32-10.194.322-.308-.004-7.618-.113-9.912-.319a8.213 8.213 0 00-.379-.047c-.679-.076-1.608-.179-2.323-.94l-.017-.017c-.492-.496-.796-1.74-.873-2.41a59.47 59.47 0 01-.22-4.73V13.89c0-2.22.2-4.507.219-4.721.092-.682.411-1.932.891-2.436.796-.847 1.635-.941 2.19-1.003l.147-.017c4.022-.28 10.02-.32 10.236-.322.215.001 6.211.043 10.197.322l.16.018c.57.063 1.433.158 2.225.975l.007.008c.492.496.796 1.761.874 2.446.014.15.22 2.471.22 4.73v2.245z" /></g><defs></defs></symbol><clipPath id="youtube_clip0"><path transform="translate(.023)" d="M0 0h31v30H0z" /></clipPath></defs></svg>